# xmcd CD database file
#
# Track frame offsets:
#	150
#	28736
#	53218
#	63219
#	90444
#	109644
#	131873
#	152939
#	183929
#	200444
#	234849
#	250817
#	274717
#
# Disc length: 3970 seconds
#
# Revision: 2
# Processed by: cddbd v1.4PL0 Copyright (c) Steve Scherf et al.
# Submitted via: CDex 1.40Beta9
#
DISCID=aa0f800d
DTITLE=John Mayall - Archives To Eighties
DYEAR=1971
DGENRE=Blues
TTITLE0=Accidental Suicide
TTITLE1=Force Of Nature
TTITLE2=Boogie Albert
TTITLE3=Television Eye
TTITLE4=Prisons On The Road
TTITLE5=Home Again
TTITLE6=Mr. Censor Man
TTITLE7=Looking At Tomorrow
TTITLE8=Blue Fox
TTITLE9=Devil's Tricks
TTITLE10=Marriage Madness
TTITLE11=Dream With Me
TTITLE12=My Children
EXTD=YEAR: 1971 ID3G: 0
EXTT0=
EXTT1=
EXTT2=
EXTT3=
EXTT4=
EXTT5=
EXTT6=
EXTT7=
EXTT8=
EXTT9=
EXTT10=
EXTT11=
EXTT12=
PLAYORDER=
